<svg xmlns="http://www.w3.org/2000/svg" width="21" height="22" fill="none"><defs/><path fill="#fff" d="M20.4589 6.60919c-.7196-.71971-1.8907-.71967-2.6106.00016-.2214.22163-1.6351 1.63648-1.8511 1.85265V3.58609c0-.49305-.192-.95656-.5406-1.30517L13.7163.54062C13.3677.19197 12.9042 0 12.4111 0H1.84583C.82804 0 0 .82804 0 1.84583V19.1556c0 1.0178.82804 1.8459 1.84583 1.8459H14.1514c1.0178 0 1.8458-.8281 1.8458-1.8459v-5.4705l4.4617-4.46549c.7214-.72135.7215-1.88899 0-2.61042zm-8.1533-5.37863c.1162 0 .3402-.02014.5406.18019l1.7403 1.74029c.1952.19529.1802.40929.1802.54063h-2.4611V1.23056zm2.4611 17.92504c0 .3393-.276.6153-.6153.6153H1.84583c-.33926 0-.61527-.276-.61527-.6153V1.84583c0-.33926.27601-.61527.61527-.61527H11.075v3.07638c0 .3398.2755.61528.6153.61528h3.0764v4.7714s-1.8153 1.81678-1.8153 1.81688l-.8698.8697a.61544.61544 0 00-.1486.2405l-.8702 2.6104c-.0737.2211-.0161.4649.1487.6297.165.165.4088.2222.6296.1486l2.6104-.8701a.6145.6145 0 00.2405-.1487l.0747-.0746v4.2396zm-1.3799-6.3403l.8701.8701-.3323.3324-1.3052.435.435-1.3052.3324-.3323zm1.7401-.0002l-.8701-.8701c.4633-.4638 2.5212-2.52337 2.9576-2.96018l.8701.87013-2.9576 2.96015zm4.4617-4.46545l-.6343.6348-.8701-.87013.6345-.635c.24-.23992.6303-.23988.8701 0 .2399.23995.2412.62893-.0002.87033z"/><path fill="#fff" d="M11.6902 6.15283H3.07634c-.3398 0-.61528.27548-.61528.61528 0 .3398.27548.61528.61528.61528h8.61386c.3398 0 .6153-.27548.6153-.61528 0-.3398-.2755-.61528-.6153-.61528zM9.22912 8.61389H3.07634c-.3398 0-.61528.27548-.61528.61528 0 .3398.27548.61528.61528.61528h6.15278c.33979 0 .61527-.27548.61527-.61528 0-.3398-.27548-.61528-.61527-.61528zM9.22912 11.075H3.07634c-.3398 0-.61528.2754-.61528.6152s.27548.6153.61528.6153h6.15278c.33979 0 .61527-.2755.61527-.6153 0-.3398-.27548-.6152-.61527-.6152zM9.22912 13.5361H3.07634c-.3398 0-.61528.2755-.61528.6153 0 .3398.27548.6153.61528.6153h6.15278c.33979 0 .61527-.2755.61527-.6153 0-.3398-.27548-.6153-.61527-.6153zM11.6902 17.3098H7.99858c-.3398 0-.61528.2755-.61528.6153 0 .3398.27548.6153.61528.6153h3.69162c.3398 0 .6153-.2755.6153-.6153 0-.3398-.2755-.6153-.6153-.6153z"/></svg>